<svg width="285" height="42" viewBox="0 0 285 42" fill="none" xmlns="http://www.w3.org/2000/svg">
<path d="M5.24609 13.2837C7.97323 13.2837 10.0758 13.9432 11.5539 15.2624C13.032 16.5815 13.771 18.4355 13.771 20.8244C13.771 23.2549 13.0424 25.1453 11.5851 26.4956C10.1279 27.8458 7.95241 28.521 5.05873 28.521H0V13.2837H5.24609ZM5.15241 15.6519H2.59182V26.0905H5.43345C7.30706 26.0905 8.73308 25.6491 9.71151 24.7662C10.69 23.8833 11.1792 22.5902 11.1792 20.8868C11.1792 17.3968 9.17025 15.6519 5.15241 15.6519Z" fill="white"/>
<path d="M27.2902 13.2837L34.004 28.521H31.256L29.7699 25.165L26.8411 25.1659L28.6877 22.7214L25.9006 16.4274L23.1138 22.7206H25.3506L22.031 25.1659L20.5452 28.521H17.7973L24.5423 13.2837H27.2902Z" fill="white"/>
<path d="M44.744 15.6207V28.521H42.1522V15.6207H37.5306V13.2837H49.3656V15.6207H44.744Z" fill="white"/>
<path d="M62.4295 13.3164L69.1432 28.5537H66.3953L64.9092 25.1978L61.9804 25.1986L63.8269 22.7541L61.0399 16.4601L58.2531 22.7533H60.4899L57.1702 25.1986L55.6845 28.5537H52.9366L59.6815 13.3164H62.4295Z" fill="white"/>
<path d="M101.999 24.3143L103.654 25.9969C102.072 27.8042 100.115 28.7078 97.7831 28.7078C95.4723 28.7078 93.5519 27.9652 92.0218 26.4799C90.4917 24.9946 89.7266 23.1198 89.7266 20.8555C89.7266 18.5704 90.5073 16.6748 92.0686 15.1688C93.6299 13.6627 95.5972 12.9097 97.9705 12.9097C100.302 12.9097 102.269 13.7822 103.872 15.5271L102.249 17.3032C101.52 16.5969 100.833 16.1088 100.188 15.8387C99.5422 15.5687 98.7824 15.4336 97.908 15.4336C96.3467 15.4336 95.0404 15.9322 93.9891 16.9293C92.9378 17.9264 92.4121 19.1936 92.4121 20.7309C92.4121 22.2473 92.9325 23.5353 93.9734 24.5947C95.0143 25.6541 96.253 26.1839 97.6894 26.1839C98.5638 26.1839 99.3184 26.0385 99.9534 25.7476C100.588 25.4568 101.27 24.979 101.999 24.3143Z" fill="white"/>
<path d="M150.551 28.521H147.96V13.2837H151.988L156.578 22.8498L161.2 13.2837H165.197V28.521H162.636V16.6178L157.296 27.1811H155.86L150.551 16.6178V28.521Z" fill="white"/>
<path d="M177.529 13.2837C179.819 13.2837 181.5 13.7251 182.572 14.608C183.645 15.4909 184.181 16.8567 184.181 18.7055C184.181 20.5336 183.639 21.8787 182.557 22.7408C181.474 23.6029 179.809 24.0339 177.561 24.0339H174.875V28.521H172.283V13.2837H177.529ZM177.842 21.7281C179.216 21.7281 180.178 21.4684 180.73 20.9491C181.282 20.4297 181.558 19.6092 181.558 18.4874C181.558 17.4488 181.235 16.7113 180.59 16.2751C179.944 15.8388 178.903 15.6207 177.467 15.6207H174.875V21.7281H177.842Z" fill="white"/>
<path d="M190.081 28.521V13.2837H192.672V26.0905H199.636V28.521H190.081Z" fill="white"/>
<path d="M205.286 13.2837H207.878V28.521H205.286V13.2837Z" fill="white"/>
<path d="M222.358 13.3164L229.071 28.5537H226.323L224.837 25.1978L221.908 25.1986L223.755 22.7541L220.968 16.4601L218.181 22.7533H220.418L217.098 25.1986L215.613 28.5537H212.865L219.61 13.3164H222.358Z" fill="white"/>
<path d="M245.44 13.2837H248V28.521H245.221L236.571 17.3968V28.521H233.979V13.2837H236.571L245.44 24.6571V13.2837Z" fill="white"/>
<path d="M266.36 24.3143L268.015 25.9969C266.432 27.8042 264.476 28.7078 262.144 28.7078C259.833 28.7078 257.913 27.9652 256.383 26.4799C254.853 24.9946 254.087 23.1198 254.087 20.8555C254.087 18.5704 254.868 16.6748 256.429 15.1688C257.991 13.6627 259.958 12.9097 262.331 12.9097C264.663 12.9097 266.63 13.7822 268.233 15.5271L266.609 17.3032C265.881 16.5969 265.194 16.1088 264.548 15.8387C263.903 15.5687 263.143 15.4336 262.269 15.4336C260.708 15.4336 259.401 15.9322 258.35 16.9293C257.299 17.9264 256.773 19.1936 256.773 20.7309C256.773 22.2473 257.293 23.5353 258.334 24.5947C259.375 25.6541 260.614 26.1839 262.05 26.1839C262.925 26.1839 263.679 26.0385 264.314 25.7476C264.949 25.4568 265.631 24.979 266.36 24.3143Z" fill="white"/>
<path d="M284.75 13.2837V15.683H276.6V19.7338H283.907V22.0085H276.6V26.0905H285V28.521H274.008V13.2837H284.75Z" fill="white"/>
<path d="M141.228 20.2341C141.242 20.86 140.752 21.3799 140.133 21.3953C139.521 21.4106 139.012 20.9268 138.988 20.3108L138.987 20.29C138.877 15.408 136.272 10.9072 132.008 8.4589L131.878 8.38534C131.337 8.08234 131.142 7.39256 131.443 6.84466C131.744 6.29677 132.426 6.09825 132.967 6.40125C138.011 9.22583 141.099 14.5061 141.228 20.2341ZM128.626 36.4812C128.022 36.6175 127.423 36.2326 127.29 35.6216C127.158 35.0173 127.529 34.4182 128.122 34.2731L128.142 34.2683C131.985 33.4017 135.299 30.9386 137.249 27.3859C137.674 26.6113 138.022 25.8067 138.293 24.9799L138.325 24.8806C138.516 24.2845 139.147 23.9564 139.736 24.1478C140.325 24.3393 140.648 24.9777 140.458 25.5738C140.138 26.5753 139.721 27.5486 139.208 28.4831C136.944 32.6101 133.089 35.4748 128.626 36.4812ZM110.449 27.1665C110.201 26.5932 110.46 25.9244 111.027 25.6726C111.588 25.4237 112.24 25.6754 112.494 26.2349L112.503 26.2545C113.706 29.0383 115.768 31.3529 118.455 32.8575C120.056 33.7537 121.785 34.3098 123.564 34.5153C124.179 34.5863 124.619 35.1481 124.548 35.7702C124.476 36.3922 123.92 36.8389 123.305 36.7679C121.237 36.5289 119.225 35.8822 117.366 34.8417C114.246 33.0944 111.847 30.4013 110.449 27.1665ZM115.987 7.29877C116.496 6.94049 117.194 7.06628 117.547 7.57974C117.901 8.09319 117.775 8.79986 117.267 9.15814C115.55 10.3682 114.121 11.9607 113.082 13.8542C111.741 16.2978 111.168 19.0287 111.384 21.7507C111.433 22.3747 110.973 22.922 110.356 22.9733C109.739 23.0245 109.199 22.5601 109.15 21.9362C108.899 18.7722 109.566 15.5947 111.123 12.7569C112.329 10.5586 113.991 8.70599 115.987 7.29877ZM132.967 6.40125C133.508 6.70424 133.703 7.39403 133.402 7.94192C133.105 8.48352 132.435 8.68373 131.897 8.39559L131.878 8.38534C128.645 6.5746 124.907 6.16879 121.417 7.17015C120.822 7.3411 120.203 6.99142 120.035 6.38912C119.867 5.78681 120.214 5.15996 120.81 4.98901C124.863 3.82586 129.211 4.29792 132.967 6.40125Z" fill="url(#paint0_linear_81_360)"/>
<path d="M136.319 22.7812C136.203 23.3968 135.617 23.8024 135.009 23.6872C134.408 23.5732 134.011 22.9928 134.113 22.3847L134.117 22.364C134.222 21.7994 134.276 21.2226 134.277 20.6384C134.282 15.5752 130.271 11.4655 125.288 11.3892L125.136 11.3881C124.517 11.3888 124.016 10.8817 124.017 10.2554C124.018 9.62921 124.52 9.12099 125.139 9.12032C131.43 9.11345 136.525 14.2692 136.518 20.6359C136.517 21.3611 136.45 22.0784 136.319 22.7812ZM116.489 28.184C116.085 27.7102 116.138 26.9942 116.607 26.5846C117.076 26.1751 117.784 26.2272 118.188 26.7009C119.914 28.7272 122.418 29.9115 125.116 29.9086C127.941 29.9055 130.552 28.6011 132.282 26.4059C132.668 25.9157 133.373 25.8342 133.856 26.2239C134.34 26.6136 134.419 27.3269 134.033 27.8171C131.882 30.5473 128.628 32.1726 125.114 32.1764C121.757 32.1801 118.636 30.7041 116.489 28.184ZM124.694 9.12944C125.312 9.1047 125.832 9.59192 125.855 10.2177C125.878 10.8363 125.407 11.3587 124.799 11.3944L124.778 11.3955C119.877 11.5915 115.981 15.6793 115.976 20.6596C115.975 21.367 116.053 22.0632 116.205 22.7395C116.343 23.3497 115.966 23.9585 115.362 24.0993C114.759 24.2401 114.158 23.8595 114.021 23.2493C113.83 22.407 113.734 21.5407 113.735 20.6622C113.741 14.4621 118.591 9.3736 124.694 9.12944Z" fill="url(#paint1_linear_81_360)"/>
<path d="M120.42 15.7539C123.052 13.1084 127.32 13.1084 129.952 15.7539C132.585 18.3993 132.585 22.6884 129.952 25.3339C129.514 25.7748 128.802 25.7748 128.364 25.3339C127.93 24.8985 127.925 24.1959 128.347 23.7538L128.364 23.7372C130.118 21.9736 130.118 19.1142 128.364 17.3505C126.609 15.5869 123.763 15.5869 122.008 17.3505C120.271 19.0965 120.254 21.9165 121.956 23.684L122.008 23.7372C122.447 24.1781 122.447 24.8929 122.008 25.3339C121.57 25.7748 120.858 25.7748 120.42 25.3339C117.787 22.6884 117.787 18.3993 120.42 15.7539Z" fill="url(#paint2_linear_81_360)"/>
<defs>
<linearGradient id="paint0_linear_81_360" x1="135.365" y1="41.0586" x2="114.543" y2="0.398808" gradientUnits="userSpaceOnUse">
<stop stop-color="#6240F4"/>
<stop offset="1" stop-color="#B17FFD"/>
</linearGradient>
<linearGradient id="paint1_linear_81_360" x1="117.984" y1="6.17787" x2="132.606" y2="34.8804" gradientUnits="userSpaceOnUse">
<stop stop-color="#6240F4"/>
<stop offset="1" stop-color="#B17FFD"/>
</linearGradient>
<linearGradient id="paint2_linear_81_360" x1="131.927" y1="15.1694" x2="119.726" y2="25.7429" gradientUnits="userSpaceOnUse">
<stop stop-color="#6240F4"/>
<stop offset="1" stop-color="#B17FFD"/>
</linearGradient>
</defs>
</svg>
