<svg width="53" height="23" viewBox="0 0 53 23" fill="none" xmlns="http://www.w3.org/2000/svg">
<path fill-rule="evenodd" clip-rule="evenodd" d="M52.2107 10.281C52.2512 10.3045 52.2912 10.3276 52.3307 10.3503L52.2107 10.5597V12.7435L52.3307 12.9529C52.2912 12.9756 52.2512 12.9987 52.2107 13.0223V13.1516H51.9909C50.4407 14.0751 48.2756 15.5886 46.4676 17.332C45.4965 18.2685 44.6662 19.2353 44.0869 20.1773C43.5021 21.1282 43.2315 21.9584 43.2315 22.6516H40.2315C40.2315 21.2043 40.7819 19.8246 41.5314 18.6058C42.2864 17.3781 43.3036 16.2156 44.3852 15.1725C45.1311 14.4533 45.9256 13.7738 46.7171 13.1516H0.336182V10.1516H46.7171C45.9256 9.52947 45.1311 8.84995 44.3852 8.13069C43.3036 7.08764 42.2864 5.92509 41.5314 4.69743C40.7819 3.47867 40.2315 2.09896 40.2315 0.651611H43.2315C43.2315 1.3448 43.5021 2.175 44.0869 3.12589C44.6662 4.06789 45.4965 5.03473 46.4676 5.97118C48.2756 7.71463 50.4407 9.22815 51.9909 10.1516H52.2107V10.281Z" fill="#130329"/>
</svg>
