<svg width="53" height="23" viewBox="0 0 53 23" fill="none" xmlns="http://www.w3.org/2000/svg">
<path fill-rule="evenodd" clip-rule="evenodd" d="M52.2107 10.1294C52.2512 10.1529 52.2912 10.176 52.3307 10.1987L52.2107 10.4081V12.5919L52.3307 12.8013C52.2912 12.824 52.2512 12.8471 52.2107 12.8706V13H51.9909C50.4407 13.9235 48.2756 15.437 46.4676 17.1804C45.4965 18.1169 44.6662 19.0837 44.0869 20.0257C43.5021 20.9766 43.2315 21.8068 43.2315 22.5H40.2315C40.2315 21.0527 40.7819 19.6729 41.5314 18.4542C42.2864 17.2265 43.3036 16.064 44.3852 15.0209C45.1311 14.3017 45.9256 13.6221 46.7171 13H0.336182V10H46.7171C45.9256 9.37786 45.1311 8.69834 44.3852 7.97908C43.3036 6.93603 42.2864 5.77348 41.5314 4.54582C40.7819 3.32706 40.2315 1.94735 40.2315 0.5H43.2315C43.2315 1.19319 43.5021 2.02339 44.0869 2.97428C44.6662 3.91628 45.4965 4.88312 46.4676 5.81957C48.2756 7.56301 50.4407 9.07654 51.9909 10H52.2107V10.1294Z" fill="#FDDAA5"/>
</svg>
