<svg width="1920" height="549" viewBox="0 0 1920 549" fill="none" xmlns="http://www.w3.org/2000/svg">
<circle cx="30.0347" cy="285.865" r="2.66537" fill="white" fill-opacity="0.46"/>
<circle cx="73.2993" cy="231.492" r="2.66537" fill="white" fill-opacity="0.46"/>
<circle cx="23.5909" cy="184.581" r="2.66537" fill="white" fill-opacity="0.22"/>
<circle cx="48.4453" cy="389.282" r="2.66537" fill="white" fill-opacity="0.59"/>
<circle cx="95.3923" cy="318.916" r="2.66537" fill="white" fill-opacity="0.59"/>
<circle cx="131.292" cy="264.542" r="2.66537" fill="white" fill-opacity="0.59"/>
<circle cx="176.398" cy="349.834" r="2.66537" fill="white" fill-opacity="0.72"/>
<circle cx="142.338" cy="415.936" r="2.66537" fill="white" fill-opacity="0.72"/>
<circle cx="99.0739" cy="502.293" r="2.66537" fill="white" fill-opacity="0.72"/>
<circle cx="204.014" cy="295.461" r="2.66537" fill="white" fill-opacity="0.72"/>
<circle cx="1731.16" cy="121.679" r="2.66537" fill="white" fill-opacity="0.05"/>
<circle cx="1817.69" cy="155.795" r="2.66537" fill="white" fill-opacity="0.05"/>
<circle cx="1906.98" cy="189.912" r="2.66537" fill="white" fill-opacity="0.05"/>
<circle cx="543.687" cy="358.363" r="2.66537" fill="white" fill-opacity="0.8"/>
<circle cx="545.528" cy="411.671" r="2.66537" fill="white" fill-opacity="0.8"/>
<circle cx="546.448" cy="469.243" r="2.66537" fill="white" fill-opacity="0.8"/>
<circle cx="549.21" cy="546.006" r="2.66537" fill="white" fill-opacity="0.8"/>
<circle cx="1566.39" cy="213.367" r="2.66537" fill="white" fill-opacity="0.1"/>
<circle cx="1635.43" cy="248.55" r="2.66537" fill="white" fill-opacity="0.1"/>
<circle cx="1715.51" cy="291.196" r="2.66537" fill="white" fill-opacity="0.1"/>
<circle cx="1824.14" cy="348.768" r="2.66537" fill="white" fill-opacity="0.1"/>
<circle cx="1361.11" cy="283.733" r="2.66537" fill="white" fill-opacity="0.15"/>
<circle cx="1415.42" cy="324.247" r="2.66537" fill="white" fill-opacity="0.15"/>
<circle cx="1476.18" cy="371.157" r="2.66537" fill="white" fill-opacity="0.15"/>
<circle cx="1560.87" cy="431.928" r="2.66537" fill="white" fill-opacity="0.15"/>
<circle cx="1169.64" cy="326.379" r="2.66537" fill="white" fill-opacity="0.38"/>
<circle cx="1213.83" cy="371.157" r="2.66537" fill="white" fill-opacity="0.38"/>
<circle cx="1260.77" cy="420.2" r="2.66537" fill="white" fill-opacity="0.38"/>
<circle cx="1324.29" cy="485.235" r="2.66537" fill="white" fill-opacity="0.38"/>
<circle cx="989.221" cy="349.834" r="2.66537" fill="white" fill-opacity="0.46"/>
<circle cx="1023.28" cy="397.811" r="2.66537" fill="white" fill-opacity="0.46"/>
<circle cx="1058.26" cy="448.986" r="2.66537" fill="white" fill-opacity="0.46"/>
<circle cx="1104.29" cy="517.22" r="2.66537" fill="white" fill-opacity="0.46"/>
<circle cx="828.129" cy="361.562" r="2.66537" fill="white" fill-opacity="0.59"/>
<circle cx="850.221" cy="412.737" r="2.66537" fill="white" fill-opacity="0.59"/>
<circle cx="873.234" cy="466.044" r="2.66537" fill="white" fill-opacity="0.59"/>
<circle cx="903.612" cy="537.476" r="2.66537" fill="white" fill-opacity="0.59"/>
<circle cx="681.766" cy="364.76" r="2.66537" fill="white" fill-opacity="0.72"/>
<circle cx="692.812" cy="415.936" r="2.66537" fill="white" fill-opacity="0.72"/>
<circle cx="705.699" cy="472.441" r="2.66537" fill="white" fill-opacity="0.72"/>
<circle cx="721.348" cy="546.006" r="2.66537" fill="white" fill-opacity="0.72"/>
<circle cx="426.78" cy="345.57" r="2.66537" fill="white" fill-opacity="0.72"/>
<circle cx="419.416" cy="399.943" r="2.66537" fill="white" fill-opacity="0.72"/>
<circle cx="410.211" cy="459.648" r="2.66537" fill="white" fill-opacity="0.72"/>
<circle cx="398.244" cy="539.609" r="2.66537" fill="white" fill-opacity="0.72"/>
<circle cx="287.781" cy="377.554" r="2.66537" fill="white" fill-opacity="0.8"/>
<circle cx="305.271" cy="323.181" r="2.66537" fill="white" fill-opacity="0.8"/>
<circle cx="265.689" cy="441.523" r="2.66537" fill="white" fill-opacity="0.8"/>
<circle cx="237.153" cy="523.616" r="2.66537" fill="white" fill-opacity="0.8"/>
</svg>
