<svg width="11" height="11" viewBox="0 0 11 11" fill="none" xmlns="http://www.w3.org/2000/svg">
<path d="M7.50964 5.88455C8.04069 5.46674 8.4283 4.8938 8.61856 4.24543C8.80882 3.59707 8.79227 2.90553 8.57119 2.26701C8.35012 1.6285 7.93553 1.07476 7.3851 0.682846C6.83466 0.29093 6.17576 0.0803223 5.50006 0.0803223C4.82436 0.0803223 4.16545 0.29093 3.61502 0.682846C3.06459 1.07476 2.65 1.6285 2.42892 2.26701C2.20785 2.90553 2.1913 3.59707 2.38155 4.24543C2.57181 4.8938 2.95943 5.46674 3.49048 5.88455C2.58052 6.24911 1.78655 6.85378 1.19321 7.63409C0.599871 8.41439 0.229406 9.34109 0.121309 10.3154C0.113485 10.3865 0.119747 10.4585 0.13974 10.5272C0.159732 10.5959 0.193062 10.66 0.237828 10.7159C0.328236 10.8286 0.459734 10.9008 0.603393 10.9166C0.747052 10.9324 0.891104 10.8905 1.00386 10.8001C1.11662 10.7097 1.18884 10.5782 1.20464 10.4345C1.32358 9.3757 1.82847 8.39778 2.62284 7.68764C3.41722 6.97751 4.44538 6.58494 5.51089 6.58494C6.57641 6.58494 7.60457 6.97751 8.39894 7.68764C9.19331 8.39778 9.6982 9.3757 9.81714 10.4345C9.83187 10.5676 9.89538 10.6906 9.99541 10.7796C10.0954 10.8686 10.2249 10.9174 10.3588 10.9166H10.4184C10.5604 10.9003 10.6902 10.8285 10.7794 10.7169C10.8687 10.6053 10.9103 10.4629 10.8951 10.3208C10.7865 9.34374 10.414 8.41467 9.8176 7.63316C9.22122 6.85165 8.42339 6.24718 7.50964 5.88455ZM5.50006 5.49997C5.07153 5.49997 4.65263 5.37289 4.29632 5.13482C3.94002 4.89674 3.66231 4.55835 3.49832 4.16245C3.33433 3.76654 3.29142 3.3309 3.37502 2.9106C3.45863 2.49031 3.66498 2.10425 3.96799 1.80123C4.27101 1.49822 4.65707 1.29187 5.07736 1.20826C5.49766 1.12466 5.9333 1.16757 6.32921 1.33156C6.72511 1.49555 7.0635 1.77326 7.30158 2.12956C7.53965 2.48587 7.66673 2.90477 7.66673 3.3333C7.66673 3.90794 7.43845 4.45904 7.03212 4.86536C6.6258 5.27169 6.0747 5.49997 5.50006 5.49997Z" fill="white"/>
</svg>
