<svg width="21" height="21" viewBox="0 0 21 21" fill="none" xmlns="http://www.w3.org/2000/svg">
<path fill-rule="evenodd" clip-rule="evenodd" d="M10.4418 1.88535C11.7731 1.83458 13.1064 1.87089 14.433 1.99404C15.0765 1.98579 15.7159 2.09843 16.3178 2.3261C17.1488 2.71356 17.8164 3.38175 18.2031 4.21305C18.431 4.81495 18.5438 5.45428 18.5357 6.09781C18.5357 7.09563 18.6444 7.42824 18.6444 10.0891C18.6952 11.4206 18.6589 12.7541 18.5357 14.0809C18.5437 14.7244 18.4309 15.3637 18.2031 15.9657C17.8162 16.7961 17.1488 17.4635 16.3183 17.8504C15.7164 18.078 15.0771 18.1908 14.4336 18.183C13.4358 18.183 13.1031 18.2917 10.4423 18.2917C9.11074 18.3422 7.77731 18.3059 6.45048 18.183C5.80711 18.1906 5.16801 18.0776 4.56626 17.8499C3.73582 17.463 3.06843 16.7956 2.68149 15.9651C2.45391 15.3631 2.34109 14.7239 2.34888 14.0804C2.34888 13.0825 2.24019 12.7499 2.24019 10.0891C2.18942 8.75753 2.22573 7.42409 2.34888 6.09727C2.34054 5.45403 2.4528 4.81493 2.67986 4.21305C2.87332 3.80138 3.1358 3.42585 3.45594 3.10273C3.71643 2.71474 4.11239 2.43798 4.56626 2.32665C5.16825 2.09911 5.80752 1.9863 6.45103 1.99404C7.77786 1.87116 9.11129 1.83486 10.4428 1.88535M10.4428 0.111447C9.07381 0.0620502 7.70303 0.0983527 6.33853 0.220142C5.50528 0.218338 4.6787 0.368626 3.89942 0.663617C3.23224 0.893766 2.62618 1.27271 2.12714 1.77175C1.6281 2.2708 1.24915 2.87685 1.019 3.54403C0.668731 4.30893 0.515167 5.14923 0.572268 5.98857C0.450215 7.35288 0.413912 8.7235 0.463573 10.0923C0.413905 11.4614 0.450208 12.8322 0.572268 14.1967C0.570245 15.0299 0.720539 15.8565 1.01574 16.6358C1.24521 17.3033 1.62392 17.9097 2.12306 18.4089C2.6222 18.908 3.22861 19.2867 3.89615 19.5162C4.6754 19.8114 5.50199 19.9618 6.33527 19.9602C7.69978 20.0817 9.07055 20.118 10.4396 20.0689C11.8084 20.118 13.179 20.0817 14.5434 19.9602C15.3766 19.9618 16.2032 19.8114 16.9825 19.5162C17.6504 19.2861 18.2572 18.9069 18.7567 18.4073C19.2563 17.9078 19.6355 17.301 19.8656 16.6331C20.1614 15.8543 20.3124 15.0281 20.3112 14.195C20.3112 13.0863 20.4199 12.7537 20.4199 10.0913C20.4696 8.72223 20.4333 7.35143 20.3112 5.98694C20.3121 5.15442 20.1609 4.32873 19.865 3.55055C19.6349 2.88338 19.256 2.27732 18.7569 1.77828C18.2579 1.27923 17.6518 0.900287 16.9846 0.670138C16.2052 0.374967 15.3784 0.224497 14.545 0.22612C13.1807 0.104324 11.8101 0.0680213 10.4412 0.117426M10.4412 4.99565C9.11047 4.97399 7.82562 5.48184 6.8693 6.40748C5.91298 7.33312 5.36353 8.60073 5.34179 9.93148C5.34179 9.98582 5.34179 10.0402 5.34179 10.0945C5.34255 11.1033 5.64239 12.0892 6.2034 12.9276C6.76442 13.766 7.56142 14.4192 8.49364 14.8047C9.42586 15.1901 10.4515 15.2905 11.4407 15.0932C12.43 14.8959 13.3386 14.4096 14.0516 13.696C14.7645 12.9823 15.2499 12.0733 15.4463 11.0838C15.6427 10.0943 15.5413 9.06885 15.1549 8.137C14.7686 7.20514 14.1146 6.40877 13.2756 5.84856C12.4367 5.28835 11.4505 4.98945 10.4418 4.98967M10.4418 13.4168C9.57547 13.4325 8.73841 13.1035 8.1146 12.5022C7.49079 11.901 7.13129 11.0766 7.11515 10.2103C7.11515 10.1704 7.11515 10.1308 7.11515 10.0913C7.09944 9.22498 7.42839 8.38791 8.02968 7.7641C8.63097 7.14029 9.45537 6.78079 10.3216 6.76465H10.4418C11.3079 6.74909 12.1449 7.0781 12.7686 7.67938C13.3923 8.28065 13.7517 9.10497 13.7678 9.97115C13.7678 10.0108 13.7678 10.051 13.7678 10.0907C13.7834 10.9569 13.4544 11.7938 12.8531 12.4175C12.2518 13.0412 11.4275 13.4006 10.5613 13.4168H10.4418ZM15.7629 3.54838C15.5215 3.54827 15.2856 3.61975 15.0849 3.75377C14.8841 3.8878 14.7277 4.07835 14.6352 4.30131C14.5428 4.52428 14.5186 4.76965 14.5657 5.00637C14.6127 5.2431 14.729 5.46055 14.8996 5.63121C15.0703 5.80188 15.2877 5.9181 15.5245 5.96516C15.7612 6.01222 16.0066 5.98801 16.2295 5.8956C16.4525 5.80318 16.643 5.64672 16.7771 5.44599C16.9111 5.24526 16.9826 5.00929 16.9825 4.76793C16.9796 4.44536 16.8502 4.13681 16.6221 3.90871C16.394 3.68061 16.0855 3.55121 15.7629 3.54838Z" fill="white"/>
</svg>
