<svg width="22" height="21" viewBox="0 0 22 21" fill="none" xmlns="http://www.w3.org/2000/svg">
<path d="M0.359825 6.5952H4.84419V20.0901H0.359825V6.5952ZM2.63202 0.0900879C1.09721 0.0900879 0.0944824 1.0977 0.0944824 2.42023C0.0944824 3.71555 1.06787 4.75246 2.57333 4.75246H2.60193C4.16608 4.75246 5.14017 3.7155 5.14017 2.42023C5.11082 1.0977 4.16613 0.0900879 2.63202 0.0900879ZM15.8545 6.2782C13.4742 6.2782 12.4078 7.58747 11.8129 8.50566V6.5952H7.32717C7.38656 7.86118 7.32717 20.0901 7.32717 20.0901H11.8129V12.5536C11.8129 12.15 11.8422 11.7478 11.9602 11.4586C12.285 10.6529 13.0231 9.81842 14.261 9.81842C15.8853 9.81842 16.5339 11.0565 16.5339 12.8698V20.09H21.0189V12.3518C21.0189 8.20684 18.8068 6.2782 15.8545 6.2782Z" fill="white"/>
</svg>
