<svg width="73" height="14" viewBox="0 0 73 14" fill="none" xmlns="http://www.w3.org/2000/svg">
<g clip-path="url(#clip0_81_425)">
<path d="M5.83331 0.151367C4.44664 0.151367 2.97331 0.758034 1.93331 2.05803C1.93331 2.05803 0.806641 3.4447 0.806641 5.0047V12.5447C0.979974 12.8047 1.23997 12.8914 1.32664 13.0647H1.58664C1.84664 13.0647 2.10664 12.978 2.10664 12.8047C2.19331 12.6314 2.19331 12.5447 2.19331 12.458V5.43803C2.19331 3.35803 3.75331 1.71137 5.65997 1.71137C7.56664 1.71137 9.12664 3.35803 9.12664 5.35137V12.198C9.21331 12.718 9.47331 13.0647 9.99331 13.0647C10.4266 13.0647 10.7733 12.718 10.7733 12.2847V5.43803C10.7733 2.49137 8.60664 0.151367 5.83331 0.151367Z" fill="white"/>
<path d="M50.9867 0.151367C49.2533 0.151367 47.6933 1.01803 46.74 2.57803C45.7867 1.01803 44.2267 0.151367 42.4067 0.151367C41.02 0.151367 39.5467 0.758034 38.68 1.97137C37.5533 3.09803 37.5533 5.09137 37.5533 5.17803V12.458C37.7267 12.718 37.9 12.978 38.2467 13.0647H38.5067C38.68 13.0647 38.68 12.978 38.68 12.978C38.94 12.8047 38.94 12.5447 38.94 12.2847V5.43803C38.94 3.35803 40.5 1.71137 42.4067 1.71137C44.3133 1.71137 45.96 3.35803 45.96 5.43803V12.5447H46.22L46.3067 12.718L46.3933 12.8914C46.3933 12.8914 46.48 12.8914 46.48 13.0647H46.74C46.8267 13.0647 47 13.0647 47.0867 12.8914C47.0867 12.8914 47.3467 12.718 47.3467 12.6314V5.43803C47.3467 3.35803 48.9067 1.71137 50.9 1.71137C52.72 1.71137 54.3667 3.35803 54.3667 5.43803V12.2847C54.3667 12.6314 54.8 13.0647 55.1467 13.0647C55.58 13.0647 55.9267 12.718 55.9267 12.2847V5.43803C55.9267 2.49137 53.6733 0.151367 50.9867 0.151367Z" fill="white"/>
<path d="M58.3532 0.151367C57.8332 0.151367 57.5732 0.498034 57.5732 0.931367V12.3714C57.5732 12.8047 57.9199 13.1514 58.3532 13.1514C58.8732 13.1514 59.1332 12.8047 59.1332 12.3714V0.931367C59.1332 0.498034 58.7866 0.151367 58.3532 0.151367Z" fill="white"/>
<path d="M66.8467 0.151367C63.4667 0.151367 60.78 3.01137 60.78 6.65137C60.78 10.2914 63.4667 13.1514 66.8467 13.1514C68.58 13.1514 70.2267 12.3714 71.3534 10.9847V12.458C71.3534 12.8914 71.7867 13.238 72.1334 13.238C72.48 13.238 72.9134 12.8914 72.9134 12.458V7.25803C73.0867 1.6247 69.0134 0.151367 66.8467 0.151367ZM66.8467 11.5914C64.42 11.5914 62.34 9.4247 62.34 6.65137C62.34 3.87803 64.42 1.71137 66.8467 1.71137C69.36 1.71137 71.3534 3.87803 71.3534 6.65137C71.3534 9.4247 69.4467 11.5914 66.8467 11.5914Z" fill="white"/>
<path d="M18.8333 9.42458C20.4607 9.42458 21.7799 8.10532 21.7799 6.47792C21.7799 4.85052 20.4607 3.53125 18.8333 3.53125C17.2059 3.53125 15.8866 4.85052 15.8866 6.47792C15.8866 8.10532 17.2059 9.42458 18.8333 9.42458Z" fill="white"/>
<path d="M29.2333 8.12463C30.1428 8.12463 30.88 7.38739 30.88 6.47797C30.88 5.56854 30.1428 4.8313 29.2333 4.8313C28.3239 4.8313 27.5867 5.56854 27.5867 6.47797C27.5867 7.38739 28.3239 8.12463 29.2333 8.12463Z" fill="#00B4BF"/>
<path d="M24.0333 11.5914C26.6333 11.5914 26.7199 13.1514 29.6666 13.1514C33.0466 13.1514 35.7333 10.2914 35.7333 6.65137C35.7333 3.1847 33.0466 0.151367 29.4933 0.151367C27.0666 0.151367 26.1999 2.05803 23.9466 2.05803C22.5599 2.05803 21.2599 0.151367 18.7466 0.151367C15.3666 0.151367 12.5933 3.01137 12.5933 6.65137C12.5933 10.2914 15.2799 13.1514 18.7466 13.1514C22.2133 13.1514 21.6066 11.5914 24.0333 11.5914ZM29.6666 11.5914C28.0199 11.5914 26.1133 9.77137 24.1199 9.77137C21.7799 9.77137 20.9133 11.5914 18.8333 11.5914C16.4066 11.5914 14.3266 9.4247 14.3266 6.65137C14.3266 3.87803 16.4066 1.71137 18.8333 1.71137C20.7399 1.71137 21.8666 3.61803 24.2066 3.61803C26.4599 3.61803 27.8466 1.71137 29.6666 1.71137C32.0933 1.71137 34.1733 3.87803 34.1733 6.65137C34.1733 9.4247 32.2666 11.5914 29.6666 11.5914Z" fill="white"/>
</g>
<defs>
<clipPath id="clip0_81_425">
<rect width="72.1933" height="13" fill="white" transform="translate(0.806641 0.151367)"/>
</clipPath>
</defs>
</svg>
