<svg width="320" height="71" viewBox="0 0 320 71" fill="none" xmlns="http://www.w3.org/2000/svg">
<g clip-path="url(#clip0_14_435)">
<path d="M5.88682 39.7361C8.94703 39.7361 11.3064 40.4762 12.965 41.9564C14.6236 43.4366 15.4529 45.5171 15.4529 48.1978C15.4529 50.9251 14.6353 53.0464 13.0001 54.5616C11.3648 56.0768 8.92367 56.8344 5.67657 56.8344H0V39.7361H5.88682ZM5.7817 42.3935H2.90837V54.107H6.09706C8.1995 54.107 9.79968 53.6117 10.8976 52.621C11.9956 51.6303 12.5445 50.1792 12.5445 48.2677C12.5445 44.3516 10.2902 42.3935 5.7817 42.3935Z" fill="white"/>
<path d="M30.6232 39.7361L38.1569 56.8344H35.0734L33.4058 53.0685L30.1193 53.0695L32.1914 50.3265L29.0639 43.2638L25.9368 50.3255H28.4467L24.7217 53.0695L23.0545 56.8344H19.9709L27.5396 39.7361H30.6232Z" fill="white"/>
<path d="M50.2088 42.3585V56.8344H47.3004V42.3585H42.1144V39.7361H55.3948V42.3585H50.2088Z" fill="white"/>
<path d="M70.0542 39.7729L77.5879 56.8712H74.5044L72.8367 53.1054L69.5503 53.1064L71.6223 50.3633L68.4949 43.3006L65.3678 50.3624H67.8777L64.1526 53.1064L62.4854 56.8712H59.4019L66.9706 39.7729H70.0542Z" fill="white"/>
<path d="M114.456 52.1139L116.313 54.002C114.538 56.0301 112.342 57.0441 109.726 57.0441C107.133 57.0441 104.978 56.2107 103.261 54.544C101.544 52.8773 100.685 50.7735 100.685 48.2327C100.685 45.6685 101.561 43.5414 103.313 41.8514C105.065 40.1614 107.273 39.3164 109.936 39.3164C112.552 39.3164 114.76 40.2954 116.559 42.2535L114.736 44.2466C113.919 43.454 113.148 42.9062 112.424 42.6032C111.7 42.3002 110.847 42.1486 109.866 42.1486C108.114 42.1486 106.648 42.7081 105.468 43.827C104.289 44.9459 103.699 46.3678 103.699 48.0928C103.699 49.7945 104.283 51.2397 105.451 52.4286C106.619 53.6174 108.009 54.2118 109.621 54.2118C110.602 54.2118 111.448 54.0487 112.161 53.7223C112.873 53.396 113.639 52.8598 114.456 52.1139Z" fill="white"/>
<path d="M168.939 56.8344H166.03V39.7361H170.551L175.702 50.4706L180.888 39.7361H185.373V56.8344H182.5V43.4774L176.508 55.3308H174.896L168.939 43.4774V56.8344Z" fill="white"/>
<path d="M199.212 39.7361C201.781 39.7361 203.668 40.2314 204.871 41.2221C206.074 42.2128 206.675 43.7455 206.675 45.8201C206.675 47.8715 206.068 49.3808 204.853 50.3482C203.638 51.3156 201.77 51.7993 199.247 51.7993H196.233V56.8344H193.325V39.7361H199.212ZM199.562 49.2118C201.104 49.2118 202.184 48.9204 202.803 48.3377C203.422 47.7549 203.732 46.8341 203.732 45.5754C203.732 44.4098 203.37 43.5823 202.646 43.0928C201.921 42.6033 200.753 42.3585 199.142 42.3585H196.233V49.2118H199.562Z" fill="white"/>
<path d="M213.296 56.8344V39.7361H216.204V54.107H224.018V56.8344H213.296Z" fill="white"/>
<path d="M230.358 39.7361H233.267V56.8344H230.358V39.7361Z" fill="white"/>
<path d="M249.515 39.7729L257.049 56.8712H253.965L252.297 53.1054L249.011 53.1064L251.083 50.3633L247.956 43.3006L244.828 50.3624H247.338L243.613 53.1064L241.946 56.8712H238.863L246.431 39.7729H249.515Z" fill="white"/>
<path d="M275.416 39.7361H278.289V56.8344H275.171L265.465 44.3516V56.8344H262.556V39.7361H265.465L275.416 52.4986V39.7361Z" fill="white"/>
<path d="M298.891 52.1139L300.748 54.002C298.973 56.0301 296.777 57.0441 294.161 57.0441C291.568 57.0441 289.413 56.2107 287.696 54.544C285.979 52.8773 285.12 50.7735 285.12 48.2327C285.12 45.6685 285.996 43.5414 287.748 41.8514C289.5 40.1614 291.708 39.3164 294.371 39.3164C296.987 39.3164 299.195 40.2954 300.994 42.2535L299.171 44.2466C298.354 43.454 297.583 42.9062 296.859 42.6032C296.135 42.3002 295.282 42.1486 294.301 42.1486C292.549 42.1486 291.083 42.7081 289.903 43.827C288.724 44.9459 288.134 46.3678 288.134 48.0928C288.134 49.7945 288.718 51.2397 289.886 52.4286C291.054 53.6174 292.444 54.2118 294.056 54.2118C295.037 54.2118 295.883 54.0487 296.596 53.7223C297.308 53.396 298.074 52.8598 298.891 52.1139Z" fill="white"/>
<path d="M319.528 39.7361V42.4284H310.382V46.974H318.582V49.5265H310.382V54.107H319.808V56.8344H307.474V39.7361H319.528Z" fill="white"/>
<path d="M158.476 47.5354C158.492 48.2377 157.942 48.8211 157.248 48.8385C156.561 48.8556 155.99 48.3127 155.963 47.6215L155.962 47.5981C155.839 42.1199 152.916 37.0694 148.131 34.322L147.985 34.2395C147.378 33.8995 147.159 33.1255 147.496 32.5106C147.834 31.8958 148.599 31.6731 149.207 32.0131C154.867 35.1826 158.332 41.1078 158.476 47.5354ZM144.335 65.7668C143.657 65.9198 142.986 65.4879 142.836 64.8022C142.688 64.1242 143.105 63.4519 143.77 63.289L143.793 63.2837C148.105 62.3112 151.824 59.5473 154.011 55.5607C154.488 54.6915 154.879 53.7886 155.183 52.8608L155.219 52.7494C155.433 52.0805 156.142 51.7123 156.803 51.9271C157.464 52.1419 157.826 52.8583 157.613 53.5273C157.254 54.651 156.785 55.7432 156.21 56.7918C153.669 61.4229 149.344 64.6374 144.335 65.7668ZM123.938 55.3144C123.66 54.6712 123.95 53.9207 124.587 53.6381C125.216 53.3588 125.948 53.6412 126.233 54.2691L126.243 54.2911C127.593 57.4148 129.907 60.0121 132.922 61.7005C134.719 62.7062 136.659 63.3302 138.655 63.5607C139.345 63.6404 139.839 64.2709 139.759 64.9689C139.679 65.667 139.055 66.1682 138.365 66.0885C136.044 65.8204 133.787 65.0946 131.701 63.927C128.199 61.9664 125.508 58.9444 123.938 55.3144ZM130.153 33.0202C130.724 32.6182 131.507 32.7593 131.904 33.3355C132.3 33.9117 132.159 34.7046 131.589 35.1067C129.662 36.4645 128.059 38.2515 126.893 40.3763C125.389 43.1184 124.746 46.1828 124.988 49.2372C125.043 49.9374 124.527 50.5516 123.834 50.6091C123.142 50.6666 122.536 50.1455 122.48 49.4453C122.199 45.8949 122.947 42.3294 124.695 39.145C126.048 36.6782 127.913 34.5993 130.153 33.0202ZM149.207 32.0131C149.814 32.3531 150.033 33.1271 149.695 33.7419C149.362 34.3497 148.61 34.5743 148.006 34.251L147.985 34.2395C144.357 32.2076 140.163 31.7522 136.247 32.8759C135.578 33.0677 134.883 32.6753 134.695 31.9995C134.507 31.3236 134.896 30.6202 135.564 30.4284C140.113 29.1231 144.992 29.6529 149.207 32.0131Z" fill="url(#paint0_linear_14_435)"/>
<path d="M152.968 50.3937C152.838 51.0844 152.181 51.5396 151.498 51.4103C150.824 51.2824 150.378 50.6311 150.493 49.9488L150.497 49.9255C150.615 49.292 150.676 48.6447 150.677 47.9891C150.683 42.3076 146.182 37.696 140.589 37.6103L140.42 37.6091C139.725 37.6099 139.163 37.0408 139.164 36.3381C139.164 35.6354 139.728 35.0651 140.422 35.0643C147.482 35.0566 153.199 40.842 153.191 47.9864C153.191 48.8002 153.115 49.6051 152.968 50.3937ZM130.716 56.4563C130.263 55.9247 130.323 55.1212 130.849 54.6616C131.375 54.2021 132.169 54.2605 132.622 54.7921C134.56 57.0659 137.37 58.3949 140.397 58.3916C143.566 58.3881 146.497 56.9244 148.437 54.461C148.871 53.9109 149.662 53.8195 150.205 54.2568C150.747 54.6941 150.836 55.4945 150.403 56.0446C147.989 59.1082 144.338 60.932 140.395 60.9363C136.628 60.9405 133.126 59.2842 130.716 56.4563ZM139.923 35.0746C140.617 35.0468 141.201 35.5935 141.227 36.2957C141.252 36.9899 140.723 37.5761 140.041 37.6162L140.017 37.6174C134.518 37.8374 130.146 42.4244 130.14 48.0129C130.139 48.8068 130.226 49.588 130.398 50.3469C130.552 51.0316 130.129 51.7148 129.452 51.8727C128.775 52.0307 128.101 51.6037 127.946 50.9189C127.733 49.9737 127.624 49.0017 127.625 48.0159C127.633 41.0585 133.075 35.3485 139.923 35.0746Z" fill="url(#paint1_linear_14_435)"/>
<path d="M135.127 42.5081C138.081 39.5396 142.87 39.5396 145.824 42.5081C148.778 45.4767 148.778 50.2896 145.824 53.2582C145.331 53.7529 144.533 53.7529 144.041 53.2582C143.555 52.7696 143.549 51.9813 144.023 51.4852L144.041 51.4665C146.01 49.4875 146.01 46.2788 144.041 44.2998C142.072 42.3208 138.879 42.3208 136.91 44.2998C134.96 46.2591 134.941 49.4234 136.851 51.4068L136.91 51.4665C137.402 51.9613 137.402 52.7634 136.91 53.2582C136.417 53.7529 135.619 53.7529 135.127 53.2582C132.173 50.2896 132.173 45.4767 135.127 42.5081Z" fill="url(#paint2_linear_14_435)"/>
</g>
<defs>
<linearGradient id="paint0_linear_14_435" x1="151.898" y1="70.9033" x2="128.533" y2="25.2775" gradientUnits="userSpaceOnUse">
<stop stop-color="#6240F4"/>
<stop offset="1" stop-color="#B17FFD"/>
</linearGradient>
<linearGradient id="paint1_linear_14_435" x1="132.394" y1="31.7625" x2="148.802" y2="63.9705" gradientUnits="userSpaceOnUse">
<stop stop-color="#6240F4"/>
<stop offset="1" stop-color="#B17FFD"/>
</linearGradient>
<linearGradient id="paint2_linear_14_435" x1="148.039" y1="41.8523" x2="134.349" y2="53.7172" gradientUnits="userSpaceOnUse">
<stop stop-color="#6240F4"/>
<stop offset="1" stop-color="#B17FFD"/>
</linearGradient>
<clipPath id="clip0_14_435">
<rect width="319.808" height="70.9387" fill="white"/>
</clipPath>
</defs>
</svg>
