<svg width="26" height="21" viewBox="0 0 26 21" fill="none" xmlns="http://www.w3.org/2000/svg">
<path fill-rule="evenodd" clip-rule="evenodd" d="M8.24644 20.0898C17.5624 20.0898 22.6288 12.422 22.6288 5.70742V5.02225C23.5858 4.29369 24.4185 3.41494 25.0945 2.42012C24.1751 2.82013 23.207 3.0971 22.2152 3.24387C23.2351 2.60437 24.0085 1.63835 24.4093 0.503169C23.4197 1.05385 22.3604 1.46842 21.2599 1.73564C20.7966 1.21331 20.2269 0.796223 19.589 0.512413C18.9511 0.228603 18.2599 0.0846543 17.5617 0.0902447C16.2233 0.110119 14.9453 0.650645 13.9988 1.59716C13.0523 2.54367 12.5117 3.8217 12.4919 5.16012C12.4617 5.53099 12.5094 5.90407 12.6318 6.25542C10.616 6.15868 8.64419 5.63217 6.84846 4.71119C5.05273 3.79021 3.4746 2.49604 2.21984 0.915394C1.77009 1.70704 1.53419 2.60214 1.53537 3.51262C1.55348 4.34036 1.76029 5.15304 2.14003 5.88876C2.51978 6.62447 3.06244 7.2638 3.72667 7.75805C2.90331 7.74131 2.0994 7.50475 1.39819 7.07287C1.39697 8.24629 1.80793 9.38286 2.55931 10.2842C3.31069 11.1855 4.35476 11.7942 5.50924 12.0042C5.06323 12.1243 4.60053 12.1704 4.13959 12.1406C3.81395 12.1628 3.48728 12.1163 3.18077 12.0042C3.51577 13.0192 4.15609 13.9061 5.0142 14.5435C5.8723 15.1808 6.90632 15.5377 7.97489 15.5651C6.17498 16.9713 3.96007 17.7418 1.67604 17.7564C1.25997 17.7801 0.842841 17.7349 0.441467 17.6227C2.70815 19.2684 5.44784 20.1336 8.24854 20.0884" fill="white"/>
</svg>
