<svg width="1920" height="1030" viewBox="0 0 1920 1030" fill="none" xmlns="http://www.w3.org/2000/svg">
<path fill-rule="evenodd" clip-rule="evenodd" d="M2434.6 374.182C2446.55 442.147 2420.22 510.934 2362.09 577.167C2303.97 643.398 2214.12 706.978 2099.32 764.477C1869.71 879.471 1540.42 970.044 1165.9 1008.9C791.372 1047.75 442.603 1027.52 181.496 963.436C50.9388 931.392 -57.6458 888.397 -136.568 836.384C-215.492 784.368 -264.642 723.413 -276.596 655.448C-288.549 587.483 -262.218 518.697 -204.091 452.463C-145.966 386.232 -56.1253 322.652 58.6835 265.153C288.294 150.159 617.576 59.5866 992.102 20.7324C1366.63 -18.1218 1715.4 2.10807 1976.5 66.1939C2107.06 98.2379 2215.65 141.233 2294.57 193.247C2373.49 245.262 2422.64 306.217 2434.6 374.182ZM2435.59 374.079C2483.68 647.497 1915.3 932.156 1166.07 1009.88C416.847 1087.61 -229.502 928.969 -277.59 655.551C-325.678 382.133 242.704 97.4738 991.928 19.7475C1741.15 -57.9788 2387.5 100.661 2435.59 374.079ZM2221 396.341C2231.06 453.52 2208.89 511.411 2159.93 567.177C2110.97 622.941 2035.29 676.483 1938.57 724.908C1745.12 821.756 1467.7 898.045 1152.16 930.781C836.616 963.516 542.783 946.49 322.816 892.53C212.829 865.549 121.365 829.348 54.8951 785.559C-11.5771 741.768 -52.9429 690.468 -62.9994 633.289C-73.0559 576.11 -50.8945 518.219 -1.93231 462.453C47.028 406.689 122.708 353.147 219.434 304.722C412.877 207.874 690.298 131.585 1005.84 98.8495C1321.38 66.1143 1615.22 83.1404 1835.18 137.1C1945.17 164.081 2036.64 200.282 2103.1 244.071C2169.58 287.862 2210.94 339.162 2221 396.341ZM2221.99 396.238C2262.49 626.513 1783.59 866.277 1152.33 931.765C521.074 997.254 -23.4937 863.667 -63.9941 633.392C-104.494 403.117 374.409 163.353 1005.67 97.8647C1636.93 32.3764 2181.49 165.963 2221.99 396.238ZM2020.62 555.069C2063.31 506.437 2082.61 455.97 2073.84 406.139C2065.08 356.308 2029.04 311.583 1971.08 273.391C1913.13 235.202 1833.38 203.623 1737.47 180.085C1605.59 147.72 1443.26 130.582 1265.26 132.31C1659.78 131.734 1966.83 232.103 1993.93 386.18C2026.56 571.741 1640.79 764.935 1132.27 817.69C623.752 870.445 185.06 762.783 152.424 577.222C125.325 423.145 386.698 263.807 767.281 183.971C595.062 218.576 444.468 268.177 328.495 326.256C244.152 368.494 178.17 415.191 135.488 463.82C92.8049 512.452 73.5035 562.919 82.2678 612.75C91.032 662.581 127.076 707.306 185.029 745.498C242.98 783.687 322.73 815.266 418.641 838.804C610.455 885.878 866.687 900.739 1141.85 872.193C1417.02 843.646 1658.94 777.105 1827.62 692.633C1911.96 650.395 1977.94 603.698 2020.62 555.069ZM1014.08 145.711C463.575 202.822 45.942 411.969 81.2731 612.853C116.604 813.737 591.52 930.289 1142.03 873.178C1692.54 816.067 2110.17 606.92 2074.84 406.036C2039.51 205.152 1564.59 88.6004 1014.08 145.711ZM1014.26 146.696C1268.43 120.328 1505.11 134.056 1682.28 177.537C1770.87 199.278 1844.53 228.445 1898.05 263.714C1951.57 298.986 1984.84 340.282 1992.93 386.283C2001.02 432.283 1983.21 478.88 1943.79 523.793C1904.37 568.705 1843.43 611.835 1765.52 650.849C1609.72 728.873 1386.27 790.336 1132.1 816.705C877.923 843.073 641.245 829.345 464.072 785.865C375.482 764.123 301.825 734.957 248.305 699.687C194.783 664.416 161.509 623.119 153.418 577.118C145.328 531.118 163.143 484.521 202.563 439.608C241.981 394.697 302.922 351.566 380.827 312.552C536.629 234.528 760.083 173.065 1014.26 146.696Z" fill="url(#paint0_linear_1_1055)"/>
<defs>
<linearGradient id="paint0_linear_1_1055" x1="1079" y1="722" x2="1079.17" y2="1029.63" gradientUnits="userSpaceOnUse">
<stop stop-color="white" stop-opacity="0"/>
<stop offset="1" stop-color="white" stop-opacity="0.1"/>
</linearGradient>
</defs>
</svg>
